<?xml version="1.0" encoding="utf-8"?>
<!-- Generator: Adobe Illustrator 21.0.0, SVG Export Plug-In . SVG Version: 6.00 Build 0)  -->
<svg version="1.1" id="Слой_1" xmlns="http://www.w3.org/2000/svg" xmlns:xlink="http://www.w3.org/1999/xlink" x="0px" y="0px"
	 viewBox="0 0 247 247" style="enable-background:new 0 0 247 247;" xml:space="preserve" width="32px">
<style type="text/css">
	.st0{fill:#0bc3e3;}
</style>
<path class="st0" d="M124.9,169.2V72h97.2v98.5c0,66.6-62.5,75-62.5,75l-8.3-19.4c0,0,27.8-4.2,33.3-26.4
	c5.6-16.7-5.6-30.5-5.6-30.5S124.9,169.2,124.9,169.2z"/>
<path class="st0" d="M0,169.2V72h97.2v98.5c0,66.6-62.5,75-62.5,75l-8.3-19.4c0,0,27.8-4.2,33.3-26.4c5.6-16.7-5.6-30.5-5.6-30.5
	S0,169.2,0,169.2z"/>
</svg>
